<?xml version="1.0" encoding="UTF-8" standalone="no"?>
<!-- Created with Inkscape (http://www.inkscape.org/) -->

<svg
   xmlns:dc="http://purl.org/dc/elements/1.1/"
   xmlns:cc="http://creativecommons.org/ns#"
   xmlns:rdf="http://www.w3.org/1999/02/22-rdf-syntax-ns#"
   xmlns:svg="http://www.w3.org/2000/svg"
   xmlns="http://www.w3.org/2000/svg"
   xmlns:sodipodi="http://sodipodi.sourceforge.net/DTD/sodipodi-0.dtd"
   xmlns:inkscape="http://www.inkscape.org/namespaces/inkscape"
   width="1000"
   height="671.46509"
   id="svg2"
   version="1.1"
   inkscape:version="0.48.5 r10040"
   sodipodi:docname="A.svg">
  <defs
     id="defs4" />
  <sodipodi:namedview
     id="base"
     pagecolor="#ffffff"
     bordercolor="#666666"
     borderopacity="1.0"
     inkscape:pageopacity="0.0"
     inkscape:pageshadow="2"
     inkscape:zoom="0.90234375"
     inkscape:cx="502.82683"
     inkscape:cy="458.67625"
     inkscape:document-units="px"
     inkscape:current-layer="layer1"
     showgrid="false"
     fit-margin-top="0"
     fit-margin-left="0"
     fit-margin-right="0"
     fit-margin-bottom="0"
     inkscape:window-width="904"
     inkscape:window-height="857"
     inkscape:window-x="1008"
     inkscape:window-y="14"
     inkscape:window-maximized="0" />
  <metadata
     id="metadata7">
    <rdf:RDF>
      <cc:Work
         rdf:about="">
        <dc:format>image/svg+xml</dc:format>
        <dc:type
           rdf:resource="http://purl.org/dc/dcmitype/StillImage" />
        <dc:title></dc:title>
      </cc:Work>
    </rdf:RDF>
  </metadata>
  <g
     inkscape:label="Layer 1"
     inkscape:groupmode="layer"
     id="layer1"
     transform="translate(-97.142872,-413.77251)">
    <g
       id="g5"
       transform="matrix(8.1885983,0,0,8.1885983,96.000641,413.77251)">
      <g
         id="g7">
        <path
           class="st0"
           d="m 39.8,32.9 c 29.8,4.2 31.8,7.2 39.1,7.2 5.7,0 10.6,-1.8 14.2,-4.7 -11.3,-3 -35.2,-3.6 -53.3,-2.5 z"
           id="path9"
           inkscape:connector-curvature="0"
           style="fill:#ffd400" />
      </g>
      <path
         class="st0"
         d="M 97.8,10.3 C 69,8.2 41.3,12.9 16.5,23.3 c 30.3,1.8 52.9,4.4 78.8,9.9 3.1,-3.6 5,-8.1 5,-13.2 -0.1,-3.6 -0.9,-7 -2.5,-9.7 z"
         id="path11"
         inkscape:connector-curvature="0"
         style="fill:#ffd400" />
      <path
         class="st0"
         d="M 79.5,0 C 64.2,0 44.4,5.7 29,11.4 50,7.3 76.1,6.4 95.9,7.7 92.9,3.9 88.2,0 79.5,0 z"
         id="path13"
         inkscape:connector-curvature="0"
         style="fill:#ffd400" />
    </g>
    <g
       id="g17"
       transform="matrix(8.1885983,0,0,8.1885983,96.000641,413.77251)">
      <g
         id="g19">
        <path
           class="st1"
           d="m 20,68.7 c 1.3,0.7 3.7,1.4 5.8,1.4 1.8,0 2.8,-0.7 2.9,-1.6 0.1,-0.9 -0.5,-1.6 -2.4,-2.5 -2.4,-1 -4.2,-2.8 -3.8,-5.1 0.5,-3.9 4.7,-6.6 10.2,-6.6 2.5,0 3.9,0.4 5,0.8 l -1.3,4.3 c -0.9,-0.4 -2.6,-1 -4.5,-1 -1.7,0 -2.9,0.7 -3,1.7 -0.1,0.8 0.7,1.4 2.4,2.2 2.2,1 4.5,2.6 4.1,5.2 -0.5,4.5 -5,6.8 -10.6,6.8 -2.8,0 -4.6,-0.5 -6,-1.2 L 20,68.7 z"
           id="path21"
           inkscape:connector-curvature="0"
           style="fill:#00288c" />
      </g>
      <g
         id="g23">
        <path
           class="st1"
           d="m 54.9,54.4 c -5.5,0 -11.2,4.5 -13,10 -1.7,5.5 1,10.1 6.6,10.1 6.2,0 11.5,-4.6 13.3,-10.1 1.8,-5.6 -1.3,-10 -6.9,-10 z m 1.3,7.9 c -0.4,3.3 -2.6,7.9 -5.8,7.9 -2,0 -2.9,-1.4 -2.6,-3.8 0.3,-3 2.5,-7.7 5.8,-7.7 2.2,-0.1 2.7,1.8 2.6,3.6 z"
           id="path25"
           inkscape:connector-curvature="0"
           style="fill:#00288c" />
      </g>
      <g
         id="g27">
        <path
           class="st1"
           d="m 58.4,81.9 6,-19.7 C 65.1,60 66,56.7 66.5,54.7 l 5.1,0 -0.8,3 0.2,0 c 1.8,-2.1 4.3,-3.4 6.6,-3.4 4.2,0 5.8,3.4 5.4,7.3 -0.8,6.7 -6,12.9 -12.7,12.9 -1.6,0 -2.9,-0.4 -3.5,-0.8 l -0.1,0 -2.5,8.3 -5.830469,0 z M 68,69.2 c 0.5,0.7 1.4,0.9 2.5,0.9 3,0 6.2,-4.6 6.7,-8.4 0.1,-1.6 -0.3,-3.1 -2.1,-3.1 -2.1,0 -4.7,2.8 -5.8,6.4 z"
           id="path29"
           inkscape:connector-curvature="0"
           style="fill:#00288c"
           sodipodi:nodetypes="ccccccscsccccccscscc" />
      </g>
      <g
         id="g31">
        <path
           class="st1"
           d="m 97.7,73.3 c -2.4,0.9 -4.6,1.2 -6.7,1.2 -5.5,0 -8,-3.1 -7.5,-8.1 0.7,-5.9 5.6,-12.1 12.7,-12.1 3.9,0 6.4,2.2 6,5.8 -0.5,5 -5.6,6.7 -13.3,6.6 0,0.5 0,1.4 0.4,2 0.7,1 1.8,1.6 3.5,1.6 2.1,0 4.6,-0.8 6.2,-1.4 l -1.3,4.4 z M 95,58.4 c -2.6,0 -4.5,2.2 -5,3.9 4.5,0 6.7,-0.7 7,-2.4 0,-0.8 -0.6,-1.5 -2,-1.5 z"
           id="path33"
           inkscape:connector-curvature="0"
           style="fill:#00288c" />
      </g>
      <g
         id="g35">
        <path
           class="st1"
           d="m 100.7,74.1 3.9,-13 c 0.8,-2.5 1.3,-4.6 1.7,-6.3 h 5.1 l -0.8,3 h 0.1 c 2.1,-2.5 4.6,-3.4 7.2,-3.4 3.1,0 4.7,2 4.3,5.2 -0.1,0.9 -0.4,2.4 -0.7,3.3 l -3.4,11.2 h -5.8 c 0,0 2.6,-8.4 3.3,-10.8 0.8,-2.8 0.9,-4.6 -1.2,-4.6 -2,0 -4.1,2.1 -5.5,6.6 -1.3,4.3 -2.8,8.9 -2.8,8.9 h -5.6 v -0.1 z"
           id="path37"
           inkscape:connector-curvature="0"
           style="fill:#00288c" />
      </g>
      <g
         id="g39">
        <path
           class="st1"
           d="m 21.7,54.8 -3.9,13 c -0.8,2.5 -1.3,4.6 -1.7,6.3 H 11 l 0.8,-3 h -0.1 c -2.1,2.5 -4.6,3.4 -7.2,3.4 -3.1,0 -4.7,-2 -4.3,-5.2 C 0.3,68.4 0.6,66.9 0.9,66 L 4.3,54.8 h 5.6 c 0,0 -2.6,8.4 -3.3,10.8 -0.8,2.8 -0.9,4.6 1.2,4.6 2,0 4.1,-2.1 5.5,-6.6 1.4,-4.5 2.8,-8.9 2.8,-8.9 h 5.8 v 0.1 z"
           id="path41"
           inkscape:connector-curvature="0"
           style="fill:#00288c" />
      </g>
    </g>
  </g>
</svg>
